<svg xmlns="http://www.w3.org/2000/svg" width="104" height="3" viewBox="0 0 104 3">
  <g id="line" transform="translate(-631 -957)">
    <path id="Line_209" data-name="Line 209" d="M81,1.5H0A1.5,1.5,0,0,1-1.5,0,1.5,1.5,0,0,1,0-1.5H81A1.5,1.5,0,0,1,82.5,0,1.5,1.5,0,0,1,81,1.5Z" transform="translate(642.5 958.5)" fill="#0f63ac"/>
    <path id="Line_211" data-name="Line 211" d="M5,1.5H0A1.5,1.5,0,0,1-1.5,0,1.5,1.5,0,0,1,0-1.5H5A1.5,1.5,0,0,1,6.5,0,1.5,1.5,0,0,1,5,1.5Z" transform="translate(728.5 958.5)" fill="#0f63ac"/>
    <path id="Line_210" data-name="Line 210" d="M5,1.5H0A1.5,1.5,0,0,1-1.5,0,1.5,1.5,0,0,1,0-1.5H5A1.5,1.5,0,0,1,6.5,0,1.5,1.5,0,0,1,5,1.5Z" transform="translate(632.5 958.5)" fill="#0f63ac"/>
  </g>
</svg>
